<?xml version="1.0" standalone="no"?><!DOCTYPE svg PUBLIC "-//W3C//DTD SVG 1.1//EN" "http://www.w3.org/Graphics/SVG/1.1/DTD/svg11.dtd"><svg t="1512973221291" class="icon" style="" viewBox="0 0 1024 1024" version="1.1" xmlns="http://www.w3.org/2000/svg" p-id="4194" xmlns:xlink="http://www.w3.org/1999/xlink" width="200" height="200"><defs><style type="text/css"></style></defs><path d="M766.63466667 533.39022222H502.784V271.01866667c0-17.97688889-12.17422222-32.54044445-30.15111111-32.54044445s-30.15111111 14.56355555-30.15111111 32.54044445V563.2c0 15.47377778 8.41955555 26.05511111 22.98311111 29.35466667 2.84444445 0.79644445 5.91644445 1.25155555 9.10222222 1.25155555h292.18133334c17.97688889 0 32.54044445-12.17422222 32.54044444-30.15111111-0.11377778-18.09066667-14.67733333-30.26488889-32.65422222-30.26488889z" p-id="4195"></path><path d="M504.832 69.40444445c-250.76622222 0-453.97333333 203.20711111-453.97333333 453.97333333s203.20711111 453.97333333 453.97333333 453.97333333 453.97333333-203.20711111 453.97333333-453.97333333-203.20711111-453.97333333-453.97333333-453.97333333z m0 857.88444444c-221.75288889 0-401.63555555-180.79288889-401.63555555-403.91111111s179.76888889-403.91111111 401.63555555-403.91111111 401.63555555 180.79288889 401.63555555 403.91111111-179.76888889 403.91111111-401.63555555 403.91111111z" p-id="4196"></path></svg>