<?xml version="1.0" standalone="no"?><!DOCTYPE svg PUBLIC "-//W3C//DTD SVG 1.1//EN" "http://www.w3.org/Graphics/SVG/1.1/DTD/svg11.dtd"><svg t="1512973090963" class="icon" style="" viewBox="0 0 1025 1024" version="1.1" xmlns="http://www.w3.org/2000/svg" p-id="3374" xmlns:xlink="http://www.w3.org/1999/xlink" width="200.1953125" height="200"><defs><style type="text/css"></style></defs><path d="M953.98982158 426.12210722L549.76390244 76.49017754l-0.378-0.36000001C537.97390508 65.8341793 525.89590684 61.96418018 514.44790947 62.00018018c-14.38199737 0.144-26.69399473 6.60599824-35.27999296 14.30999735l0 0.054L74.77999737 426.12210722c-9.70199825 8.40599825-10.74599824 23.07599559-2.35799912 32.81399385 4.46399913 5.11199911 10.69199824 7.77599825 17.00999648 7.93799825l-0.054 0.144 47.71799033 0.018 0 61.73998769 0 300.02394023 0 9.07199825 0 35.98199297c0 19.22399648 7.88399825 36.73799297 20.62799561 49.46399033 12.67199737 12.61799737 30.22199385 20.53799559 49.55399032 20.5379956l205.7399587 0c12.90599737 0 23.41799561-10.49399824 23.4179956-23.3639956L436.43592529 694.50205362c0-6.38999911 2.60999913-12.27599737 6.78599825-16.50599649 4.24799913-4.19399911 10.13399825-6.80399824 16.55999648-6.80399825l109.18797803 0c6.49799913 0 12.31199737 2.60999913 16.50599648 6.80399825l0.054 0.054c4.21199911 4.17599913 6.80399824 10.06199825 6.80399824 16.45199649l0 226.02595516c0 12.86999737 10.51199824 23.36399559 23.41799561 23.36399561l205.81195869 0c19.13399648 0 36.68399297-7.90199825 49.40999033-20.5379956l0.036-0.072 0.09-0.054 0.216-0.27c12.54599737-12.68999737 20.35799561-30.07799385 20.3579956-49.08599033L891.67383388 467.34209932l50.86798946 0.018-0.522-0.72c5.34599911-0.774 10.49399824-3.29399911 14.32799736-7.70399825C964.75381982 449.19810283 963.65581982 434.52810547 953.98982158 426.12210722z" p-id="3375"></path></svg>