<?xml version="1.0" standalone="no"?><!DOCTYPE svg PUBLIC "-//W3C//DTD SVG 1.1//EN" "http://www.w3.org/Graphics/SVG/1.1/DTD/svg11.dtd"><svg t="1512973130344" class="icon" style="" viewBox="0 0 1024 1024" version="1.1" xmlns="http://www.w3.org/2000/svg" p-id="3489" xmlns:xlink="http://www.w3.org/1999/xlink" width="200" height="200"><defs><style type="text/css"></style></defs><path d="M35.49700001 933.89166666c-0.17 0.919 3.954-9.169 0 0z" fill="" p-id="3490"></path><path d="M38.76900001 926.35766666c0.579-1.295 1.26-2.557 1.84-3.885-0.75 1.26-1.398 2.486-1.84 3.885z" fill="" p-id="3491"></path><path d="M940.09500001 910.43966666c-0.101-0.273-0.239-0.477-0.306-0.682-58.32-132.73-176.495-233.827-321.087-270.402 1.194-0.339 2.147-0.715 3.341-1.124 0.444 0.068 0.819 0.137 1.261 0.205 103.178-47.174 175.065-150.965 175.065-271.765 0-165.111-133.821-298.932-298.932-298.932s-298.93 133.822-298.93 298.933c0 120.731 71.82 224.42 174.894 271.628l-0.135 0.069s0.444 0.239 1.09 0.443c0.306 0.171 0.579 0.375 0.886 0.579 0.034-0.068 0.135-0.068 0.238-0.068 0.511 0.205 0.955 0.375 1.603 0.579-99.259 25.327-186.039 80.852-249.302 156.385-27.985 33.371-51.538 70.591-69.501 110.779-0.545 1.193-1.229 2.386-1.773 3.613-0.649 1.943-1.194 3.783-1.194 5.932 0 10.463 8.453 19.02 18.85 19.02 5.726 0 10.737-2.762 14.18-6.817 0.918-1.09 1.465-2.386 2.113-3.613h0.204c0.307-0.716 0.716-1.5 1.091-2.182 16.362-36.914 37.869-71.035 63.468-101.746 74.171-88.997 183.585-148.102 307.282-157.646 11.588-0.886 23.109-2.045 34.938-2.045 11.691 0 23.382 0.477 34.767 1.328 166.882 12.749 307.691 116.505 371.261 260.825 0.135 0.41 0.34 0.649 0.511 1.023 0.068 0.34 0.374 0.682 0.444 0.921 3.237 5.931 9.237 10.089 16.497 10.089 10.327 0 18.714-8.214 18.714-18.304-0.102-2.624-0.65-4.942-1.535-7.021zM515.72900001 624.80166666c-6.066 0.511-12.1 0.954-18.27 0.954-4.261 0-8.453-0.443-12.681-0.715 0.137 0 0.375-0.069 0.511-0.069-136.513-7.362-245.007-120.015-245.007-258.369 0-143.092 115.994-259.086 259.119-259.086s259.153 116.028 259.153 259.12c0 136.649-105.836 248.314-239.964 258.131 1.909 0.068 3.682 0.41 5.556 0.477-0.306 0.069-0.613 0.137-0.852 0.205-2.557-0.17-4.977-0.579-7.567-0.647z" fill="" p-id="3492"></path><path d="M580.79900001 640.03866666s20.179 16.327 89.747-29.313c69.501-45.642-17.793-2.489-17.793-2.489l-53.276 14.519z" fill="" p-id="3493"></path><path d="M74.39400001 935.23766666l851.309 0.998c0.499 0-29.459-74.895-29.958-74.895 0.499 0-48.432-63.91-48.931-63.91 0.499 0-71.401-56.921-71.9-56.921 0.499 0-98.363-53.924-98.862-53.924 0.499 0-139.306-40.943-139.805-40.943 0.499 0-130.318 1.997-130.318 1.997s-120.831 40.943-121.33 40.943c0.499 0-102.357 75.893-102.857 75.893 0.499 0-107.349 170.762-107.349 170.762z" fill="" p-id="3494"></path><path d="M232.17400001 367.03166666c0 0 0 0 0 0 0 146.703 118.702 265.629 265.13 265.629 146.427 0 265.13-118.926 265.13-265.629 0 0 0 0 0 0 0 0 0 0 0 0 0-146.703-118.702-265.629-265.13-265.629-146.427 0-265.13 118.926-265.13 265.629s0 0 0 0z" fill="" p-id="3495"></path></svg>