<?xml version="1.0" standalone="no"?><!DOCTYPE svg PUBLIC "-//W3C//DTD SVG 1.1//EN" "http://www.w3.org/Graphics/SVG/1.1/DTD/svg11.dtd"><svg t="1512973148423" class="icon" style="" viewBox="0 0 1024 1024" version="1.1" xmlns="http://www.w3.org/2000/svg" p-id="3609" xmlns:xlink="http://www.w3.org/1999/xlink" width="200" height="200"><defs><style type="text/css"></style></defs><path d="M842.24 92H182.72c-47.04 0-84.96 37.92-84.96 84.96v659.52c0 47.04 37.92 84.96 84.96 84.96h659.52c47.04 0 84.96-37.92 84.96-84.96V176.96c0-47.04-38.4-84.96-84.96-84.96z m-75.36 235.68l-1.92 0.96v1.92c-18.24 124.8-126.72 218.88-252.48 218.88S277.76 455.36 260 330.56l-0.48-1.92-1.92-0.96c-12.48-7.2-20.16-20.16-20.16-33.6 0-22.08 17.76-39.84 39.84-39.84s39.84 17.76 39.84 39.84c0 11.52-5.28 22.08-14.88 30.24l-1.92 1.44 0.48 2.4c16.8 104.64 105.6 180.48 211.68 180.48s194.88-75.84 211.68-180.48l0.48-2.4-1.92-1.44c-9.6-8.16-14.88-18.72-14.88-30.24 0-22.08 17.76-39.84 39.84-39.84s39.84 17.76 39.84 39.84c-0.48 13.44-8.16 25.92-20.64 33.6z" p-id="3610"></path></svg>